<svg xmlns="http://www.w3.org/2000/svg" viewBox="0 0 1200 712" width="1200" height="712" role="img" aria-label="Technical Skills" preserveAspectRatio="xMidYMid meet">
  <title>Technical Skills</title>
  <defs>
    <linearGradient id="sbg" x1="0" y1="0" x2="1" y2="1">
      <stop offset="0%" stop-color="#111518"/><stop offset="100%" stop-color="#171D1C"/>
    </linearGradient>
    <linearGradient id="scard" x1="0" y1="0" x2="0" y2="1">
      <stop offset="0%" stop-color="#222C29"/><stop offset="100%" stop-color="#1B2422"/>
    </linearGradient>
    <linearGradient id="scardOn" x1="0" y1="0" x2="0" y2="1">
      <stop offset="0%" stop-color="#28332F"/><stop offset="100%" stop-color="#222C29"/>
    </linearGradient>
    <linearGradient id="shrule" x1="0" y1="0" x2="1" y2="0">
      <stop offset="0%" stop-color="#4FA78F" stop-opacity="0.75"/>
      <stop offset="16%" stop-color="#D4B477" stop-opacity="0.55"/>
      <stop offset="45%" stop-color="#40534D" stop-opacity="0.55"/>
      <stop offset="100%" stop-color="#40534D" stop-opacity="0"/>
    </linearGradient>
    <linearGradient id="shaccent" x1="0" y1="0" x2="0" y2="1">
      <stop offset="0%" stop-color="#4FA78F"/><stop offset="70%" stop-color="#4FA78F"/>
      <stop offset="100%" stop-color="#D4B477"/>
    </linearGradient>
    <pattern id="sgrid" width="42" height="42" patternUnits="userSpaceOnUse">
      <path d="M42 0H0V42" fill="none" stroke="#2D3B37" stroke-width="1" opacity="0.32"/>
    </pattern>
  </defs>
  <style>
    .f{font-family:"Segoe UI",Roboto,"Helvetica Neue",Arial,"Noto Sans","Liberation Sans",sans-serif}
    .m{font-family:"IBM Plex Mono","Consolas","DejaVu Sans Mono",monospace}
    .cattitle{font-size:15px;font-weight:700;fill:#F1EEE7}
    .techlbl{font-size:11px;font-weight:600;letter-spacing:.1px;fill:#C4CCC7}
    .ico{fill:none;stroke:currentColor;stroke-width:1.6;stroke-linecap:round;stroke-linejoin:round}
    @keyframes cg1{0.0%{opacity:0}2.143%{opacity:0}2.857%{opacity:1}12.143%{opacity:1}14.286%{opacity:0}78.571%{opacity:0}80.357%{opacity:1}88.571%{opacity:1}90.0%{opacity:0}100.0%{opacity:0}}
    .cg1{opacity:0;animation:cg1 14.0s linear infinite}
    @keyframes cg2{0.0%{opacity:0}14.286%{opacity:0}15.0%{opacity:1}24.286%{opacity:1}26.429%{opacity:0}78.571%{opacity:0}80.357%{opacity:1}88.571%{opacity:1}90.0%{opacity:0}100.0%{opacity:0}}
    .cg2{opacity:0;animation:cg2 14.0s linear infinite}
    @keyframes cg3{0.0%{opacity:0}26.429%{opacity:0}27.143%{opacity:1}36.429%{opacity:1}38.571%{opacity:0}78.571%{opacity:0}80.357%{opacity:1}88.571%{opacity:1}90.0%{opacity:0}100.0%{opacity:0}}
    .cg3{opacity:0;animation:cg3 14.0s linear infinite}
    @keyframes cg4{0.0%{opacity:0}38.571%{opacity:0}39.286%{opacity:1}48.571%{opacity:1}50.714%{opacity:0}78.571%{opacity:0}80.357%{opacity:1}88.571%{opacity:1}90.0%{opacity:0}100.0%{opacity:0}}
    .cg4{opacity:0;animation:cg4 14.0s linear infinite}
    @keyframes cg5{0.0%{opacity:0}50.714%{opacity:0}51.429%{opacity:1}60.714%{opacity:1}62.857%{opacity:0}78.571%{opacity:0}80.357%{opacity:1}88.571%{opacity:1}90.0%{opacity:0}100.0%{opacity:0}}
    .cg5{opacity:0;animation:cg5 14.0s linear infinite}
    @keyframes cg6{0.0%{opacity:0}62.857%{opacity:0}63.571%{opacity:1}72.857%{opacity:1}75.0%{opacity:0}78.571%{opacity:0}80.357%{opacity:1}88.571%{opacity:1}90.0%{opacity:0}100.0%{opacity:0}}
    .cg6{opacity:0;animation:cg6 14.0s linear infinite}
    @media (prefers-reduced-motion: reduce){
      .cg1,.cg2,.cg3,.cg4,.cg5,.cg6{animation:none}
    }
  </style>
  <rect width="1200" height="712" fill="#111518"/>
  <rect width="1200" height="712" fill="url(#sbg)"/>
  <rect width="1200" height="712" fill="url(#sgrid)" opacity=".3"/>
  <g class="f">
    <rect x="64" y="22" width="4" height="40" rx="2" fill="url(#shaccent)"/>
    <text x="80" y="40" font-size="33" font-weight="700" letter-spacing=".2px" fill="#F1EEE7">Technical Skills</text>
    <text x="80" y="64" font-size="15.5" fill="#C4CCC7">Technologies and tools I use across product, artificial intelligence, and system development.</text>
    <rect x="64" y="78" width="1072" height="1.2" fill="url(#shrule)"/>
    <g><rect x="22" y="108" width="568" height="182" rx="14" fill="url(#scard)" stroke="#40534D" stroke-width="1.1"/><rect x="22" y="124" width="3" height="150" rx="1.5" fill="#4FA78F"/><g class="ico" stroke="#78BBA9" transform="translate(42 126)"><path d="M8.4 6.6 3 12l5.4 5.4M15.6 6.6 21 12l-5.4 5.4M13.6 4.2 10.4 19.8" stroke-width="1.7"/></g><text class="cattitle" x="74" y="143">PROGRAMMING LANGUAGES</text><rect x="42" y="158" width="528" height="1" fill="#2D3B37" opacity=".7"/><rect x="42" y="178" width="87" height="38" rx="9" fill="#28332F" stroke="#40534D" stroke-width="1"/><g transform="translate(50 185) scale(1.0000)" fill="#4B8BBE" stroke="#4B8BBE"><title>Python</title><path d="M12 2.6c-3.6 0-4 1.6-4 3.2v2.2h4.4v.9H6.2C4.4 8.9 3 10.4 3 12.9c0 2.4 1 3.9 3.2 3.9h1.4v-2.3c0-2.2 1.9-3.9 4-3.9h3.8c1.7 0 3-1.4 3-3.2V5.8c0-1.6-1.5-3.2-4.6-3.2h-1.8Z"/><circle cx="9.4" cy="4.9" r="0.85" fill="#fff"/><path d="M12 21.4c3.6 0 4-1.6 4-3.2v-2.2H11.6v-.9h6.2c1.8 0 3.2-1.5 3.2-4 0-2.4-1-3.9-3.2-3.9H16.4v2.3c0 2.2-1.9 3.9-4 3.9H8.6c-1.7 0-3 1.4-3 3.2v2.2c0 1.6 1.5 3.2 4.6 3.2H12Z" fill="#FFD43B"/><circle cx="14.6" cy="19.1" r="0.85" fill="#242938"/></g><text class="techlbl" x="81" y="201">Python</text><rect x="137" y="178" width="72" height="38" rx="9" fill="#28332F" stroke="#40534D" stroke-width="1"/><g transform="translate(145 185) scale(1.0000)" fill="#F8A61C" stroke="#F8A61C"><title>Java</title><path d="M5.6 10.4h10.8v5.2a5.4 5.4 0 0 1-5.4 5.4H11a5.4 5.4 0 0 1-5.4-5.4Z" fill="currentColor" stroke="none"/><path d="M16.4 11.4h1.8a2.6 2.6 0 0 1 0 5.2h-1.8" fill="none"/><path d="M9 3.4c-1.6 1.6.4 2.6-.6 4.2M13 3.4c-1.6 1.6.4 2.6-.6 4.2" stroke-width="1.5"/></g><text class="techlbl" x="176" y="201">Java</text><rect x="217" y="178" width="102" height="38" rx="9" fill="#28332F" stroke="#40534D" stroke-width="1"/><g transform="translate(225 185) scale(1.0000)" fill="#F0DB4F" stroke="#F0DB4F"><title>JavaScript</title><rect x="2" y="2" width="20" height="20" rx="3" fill="currentColor" stroke="none"/><path d="M12.6 6.6v8.2c0 1.7-.8 2.4-2.1 2.4-1.1 0-1.9-.5-2.3-1.1l1.3-1.1c.2.4.5.7 1 .7.5 0 .8-.2.8-1V6.6Z" fill="#242938" stroke="none"/><path d="M14.3 15.1c.4.6 1 1 1.8 1 .8 0 1.2-.4 1.2-.9 0-.6-.5-.9-1.4-1.3l-.5-.2c-1.4-.6-2.4-1.3-2.4-2.9 0-1.4 1.1-2.5 2.8-2.5 1.2 0 2.1.4 2.7 1.5l-1.5.9c-.3-.5-.6-.7-1.2-.7-.5 0-.9.3-.9.7 0 .5.4.7 1.2 1.1l.5.2c1.6.7 2.6 1.4 2.6 3.1 0 1.7-1.3 2.7-3.1 2.7-1.7 0-2.9-.8-3.4-1.9Z" fill="#242938" stroke="none"/></g><text class="techlbl" x="256" y="201">JavaScript</text><rect x="327" y="178" width="104" height="38" rx="9" fill="#28332F" stroke="#40534D" stroke-width="1"/><g transform="translate(335 185) scale(1.0000)" fill="#3178C6" stroke="#3178C6"><title>TypeScript</title><rect x="2.6" y="2.6" width="18.8" height="18.8" rx="3"/><path d="M8.2 12h5M10.6 12v6.2M14.6 11.6c1.8-1 4 0 4 1.8s-2.2 1.7-2.2 1.7 2.4-.2 2.4 1.9-2.6 2.3-4.2 1.2" stroke="#0B1219" stroke-width="1.5" fill="none"/></g><text class="techlbl" x="366" y="201">TypeScript</text><rect x="439" y="178" width="74" height="38" rx="9" fill="#28332F" stroke="#40534D" stroke-width="1"/><g transform="translate(447 185) scale(1.0000)" fill="#C4CCC7" stroke="#C4CCC7"><title>Bash</title><rect x="2.6" y="3.4" width="18.8" height="17.2" rx="2.4"/><path d="m6.4 8.6 3.6 3.4-3.6 3.4M11.6 15.4h6" stroke="#111518" stroke-width="1.6" fill="none"/></g><text class="techlbl" x="478" y="201">Bash</text><rect x="42" y="228" width="69" height="38" rx="9" fill="#28332F" stroke="#40534D" stroke-width="1"/><g transform="translate(50 235) scale(1.0000)" fill="#78BBA9" stroke="#78BBA9"><title>SQL</title><ellipse cx="12" cy="6" rx="7.4" ry="2.6"/><path d="M4.6 6v12c0 1.4 3.3 2.6 7.4 2.6s7.4-1.2 7.4-2.6V6"/><path d="M4.6 11.4c0 1.4 3.3 2.6 7.4 2.6s7.4-1.2 7.4-2.6" stroke-width="1.4"/></g><text class="techlbl" x="81" y="251">SQL</text></g><g class="cg1"><rect x="22" y="108" width="568" height="182" rx="14" fill="url(#scardOn)" stroke="#D4B477" stroke-width="1.4"/><rect x="22" y="124" width="3" height="150" rx="1.5" fill="#D4B477"/><g class="ico" stroke="#D4B477" transform="translate(42 126)"><path d="M8.4 6.6 3 12l5.4 5.4M15.6 6.6 21 12l-5.4 5.4M13.6 4.2 10.4 19.8" stroke-width="1.7"/></g><text class="cattitle" x="74" y="143">PROGRAMMING LANGUAGES</text><rect x="42" y="158" width="528" height="1" fill="#D4B477" opacity=".9"/><rect x="42" y="178" width="87" height="38" rx="9" fill="#28332F" stroke="#40534D" stroke-width="1"/><g transform="translate(50 185) scale(1.0000)" fill="#4B8BBE" stroke="#4B8BBE"><title>Python</title><path d="M12 2.6c-3.6 0-4 1.6-4 3.2v2.2h4.4v.9H6.2C4.4 8.9 3 10.4 3 12.9c0 2.4 1 3.9 3.2 3.9h1.4v-2.3c0-2.2 1.9-3.9 4-3.9h3.8c1.7 0 3-1.4 3-3.2V5.8c0-1.6-1.5-3.2-4.6-3.2h-1.8Z"/><circle cx="9.4" cy="4.9" r="0.85" fill="#fff"/><path d="M12 21.4c3.6 0 4-1.6 4-3.2v-2.2H11.6v-.9h6.2c1.8 0 3.2-1.5 3.2-4 0-2.4-1-3.9-3.2-3.9H16.4v2.3c0 2.2-1.9 3.9-4 3.9H8.6c-1.7 0-3 1.4-3 3.2v2.2c0 1.6 1.5 3.2 4.6 3.2H12Z" fill="#FFD43B"/><circle cx="14.6" cy="19.1" r="0.85" fill="#242938"/></g><text class="techlbl" x="81" y="201">Python</text><rect x="137" y="178" width="72" height="38" rx="9" fill="#28332F" stroke="#40534D" stroke-width="1"/><g transform="translate(145 185) scale(1.0000)" fill="#F8A61C" stroke="#F8A61C"><title>Java</title><path d="M5.6 10.4h10.8v5.2a5.4 5.4 0 0 1-5.4 5.4H11a5.4 5.4 0 0 1-5.4-5.4Z" fill="currentColor" stroke="none"/><path d="M16.4 11.4h1.8a2.6 2.6 0 0 1 0 5.2h-1.8" fill="none"/><path d="M9 3.4c-1.6 1.6.4 2.6-.6 4.2M13 3.4c-1.6 1.6.4 2.6-.6 4.2" stroke-width="1.5"/></g><text class="techlbl" x="176" y="201">Java</text><rect x="217" y="178" width="102" height="38" rx="9" fill="#28332F" stroke="#40534D" stroke-width="1"/><g transform="translate(225 185) scale(1.0000)" fill="#F0DB4F" stroke="#F0DB4F"><title>JavaScript</title><rect x="2" y="2" width="20" height="20" rx="3" fill="currentColor" stroke="none"/><path d="M12.6 6.6v8.2c0 1.7-.8 2.4-2.1 2.4-1.1 0-1.9-.5-2.3-1.1l1.3-1.1c.2.4.5.7 1 .7.5 0 .8-.2.8-1V6.6Z" fill="#242938" stroke="none"/><path d="M14.3 15.1c.4.6 1 1 1.8 1 .8 0 1.2-.4 1.2-.9 0-.6-.5-.9-1.4-1.3l-.5-.2c-1.4-.6-2.4-1.3-2.4-2.9 0-1.4 1.1-2.5 2.8-2.5 1.2 0 2.1.4 2.7 1.5l-1.5.9c-.3-.5-.6-.7-1.2-.7-.5 0-.9.3-.9.7 0 .5.4.7 1.2 1.1l.5.2c1.6.7 2.6 1.4 2.6 3.1 0 1.7-1.3 2.7-3.1 2.7-1.7 0-2.9-.8-3.4-1.9Z" fill="#242938" stroke="none"/></g><text class="techlbl" x="256" y="201">JavaScript</text><rect x="327" y="178" width="104" height="38" rx="9" fill="#28332F" stroke="#40534D" stroke-width="1"/><g transform="translate(335 185) scale(1.0000)" fill="#3178C6" stroke="#3178C6"><title>TypeScript</title><rect x="2.6" y="2.6" width="18.8" height="18.8" rx="3"/><path d="M8.2 12h5M10.6 12v6.2M14.6 11.6c1.8-1 4 0 4 1.8s-2.2 1.7-2.2 1.7 2.4-.2 2.4 1.9-2.6 2.3-4.2 1.2" stroke="#0B1219" stroke-width="1.5" fill="none"/></g><text class="techlbl" x="366" y="201">TypeScript</text><rect x="439" y="178" width="74" height="38" rx="9" fill="#28332F" stroke="#40534D" stroke-width="1"/><g transform="translate(447 185) scale(1.0000)" fill="#C4CCC7" stroke="#C4CCC7"><title>Bash</title><rect x="2.6" y="3.4" width="18.8" height="17.2" rx="2.4"/><path d="m6.4 8.6 3.6 3.4-3.6 3.4M11.6 15.4h6" stroke="#111518" stroke-width="1.6" fill="none"/></g><text class="techlbl" x="478" y="201">Bash</text><rect x="42" y="228" width="69" height="38" rx="9" fill="#28332F" stroke="#40534D" stroke-width="1"/><g transform="translate(50 235) scale(1.0000)" fill="#78BBA9" stroke="#78BBA9"><title>SQL</title><ellipse cx="12" cy="6" rx="7.4" ry="2.6"/><path d="M4.6 6v12c0 1.4 3.3 2.6 7.4 2.6s7.4-1.2 7.4-2.6V6"/><path d="M4.6 11.4c0 1.4 3.3 2.6 7.4 2.6s7.4-1.2 7.4-2.6" stroke-width="1.4"/></g><text class="techlbl" x="81" y="251">SQL</text></g>
    <g><rect x="610" y="108" width="568" height="182" rx="14" fill="url(#scard)" stroke="#40534D" stroke-width="1.1"/><rect x="610" y="124" width="3" height="150" rx="1.5" fill="#4FA78F"/><g class="ico" stroke="#78BBA9" transform="translate(630 126)"><rect x="2.6" y="4.6" width="18.8" height="14.8" rx="2.2"/><path d="M2.6 8.4h18.8"/><circle cx="5.4" cy="6.5" r="0.7" fill="currentColor" stroke="none"/><circle cx="7.8" cy="6.5" r="0.7" fill="currentColor" stroke="none"/></g><text class="cattitle" x="662" y="143">FRONTEND</text><rect x="630" y="158" width="528" height="1" fill="#2D3B37" opacity=".7"/><rect x="630" y="203" width="78" height="38" rx="9" fill="#28332F" stroke="#40534D" stroke-width="1"/><g transform="translate(638 210) scale(1.0000)" fill="#61DAFB" stroke="#61DAFB"><title>React</title><g fill="none"><ellipse cx="12" cy="12" rx="10" ry="4"/><ellipse cx="12" cy="12" rx="10" ry="4" transform="rotate(60 12 12)"/><ellipse cx="12" cy="12" rx="10" ry="4" transform="rotate(120 12 12)"/></g><circle cx="12" cy="12" r="2" fill="currentColor" stroke="none"/></g><text class="techlbl" x="669" y="226">React</text><rect x="716" y="203" width="85" height="38" rx="9" fill="#28332F" stroke="#40534D" stroke-width="1"/><g transform="translate(724 210) scale(1.0000)" fill="#EDEDED" stroke="#EDEDED"><title>Next.js</title><circle cx="12" cy="12" r="9.4" fill="#111518" stroke="#40534D"/><path d="M8.8 8v8M8.8 8l6.6 8.4M15.4 8v5.4" stroke="#EDEDED" stroke-width="1.7"/></g><text class="techlbl" x="755" y="226">Next.js</text><rect x="809" y="203" width="115" height="38" rx="9" fill="#28332F" stroke="#40534D" stroke-width="1"/><g transform="translate(817 210) scale(1.0000)" fill="#38BDF8" stroke="#38BDF8"><title>Tailwind CSS</title><path d="M7 12.4c.7-2.8 2.3-4.2 4.8-4.2 3.7 0 4.1 2.8 6 3.2 1.3.3 2.4-.2 3.2-1.6-.7 2.8-2.3 4.2-4.8 4.2-3.7 0-4.1-2.8-6-3.2-1.3-.3-2.4.2-3.2 1.6Z"/><path d="M1.6 16.8c.7-2.8 2.3-4.2 4.8-4.2 3.7 0 4.1 2.8 6 3.2 1.3.3 2.4-.2 3.2-1.6-.7 2.8-2.3 4.2-4.8 4.2-3.7 0-4.1-2.8-6-3.2-1.3-.3-2.4.2-3.2 1.6Z"/></g><text class="techlbl" x="848" y="226">Tailwind CSS</text><rect x="932" y="203" width="86" height="38" rx="9" fill="#28332F" stroke="#40534D" stroke-width="1"/><g transform="translate(940 210) scale(1.0000)" fill="#E34F26" stroke="#E34F26"><title>HTML5</title><path d="M3.4 2.6h17.2l-1.6 17.6L12 22 5 20.2Z" fill="currentColor" stroke="none"/><path d="M12 5.4H6.6l.3 3.4H12v3.2H7.2l.3 3.3L12 16.5v-3.5m0-7.6h5.4l-.3 3.4H12m0 7.6 3.9-1.1.4-4.1H12" fill="none" stroke="#F1EEE7" stroke-width="1.2"/></g><text class="techlbl" x="971" y="226">HTML5</text><rect x="1026" y="203" width="74" height="38" rx="9" fill="#28332F" stroke="#40534D" stroke-width="1"/><g transform="translate(1034 210) scale(1.0000)" fill="#1572B6" stroke="#1572B6"><title>CSS3</title><path d="M3.4 2.6h17.2l-1.6 17.6L12 22 5 20.2Z" fill="currentColor" stroke="none"/><path d="M17.4 5.4H6.6l.3 3.4h10.2l-.4 4-4.7 1.5-4.6-1.5-.3-2.4m-.1-1.1.7 7.6L12 18.3l4.9-1.4.6-6.9" fill="none" stroke="#F1EEE7" stroke-width="1.2"/></g><text class="techlbl" x="1065" y="226">CSS3</text></g><g class="cg2"><rect x="610" y="108" width="568" height="182" rx="14" fill="url(#scardOn)" stroke="#D4B477" stroke-width="1.4"/><rect x="610" y="124" width="3" height="150" rx="1.5" fill="#D4B477"/><g class="ico" stroke="#D4B477" transform="translate(630 126)"><rect x="2.6" y="4.6" width="18.8" height="14.8" rx="2.2"/><path d="M2.6 8.4h18.8"/><circle cx="5.4" cy="6.5" r="0.7" fill="currentColor" stroke="none"/><circle cx="7.8" cy="6.5" r="0.7" fill="currentColor" stroke="none"/></g><text class="cattitle" x="662" y="143">FRONTEND</text><rect x="630" y="158" width="528" height="1" fill="#D4B477" opacity=".9"/><rect x="630" y="203" width="78" height="38" rx="9" fill="#28332F" stroke="#40534D" stroke-width="1"/><g transform="translate(638 210) scale(1.0000)" fill="#61DAFB" stroke="#61DAFB"><title>React</title><g fill="none"><ellipse cx="12" cy="12" rx="10" ry="4"/><ellipse cx="12" cy="12" rx="10" ry="4" transform="rotate(60 12 12)"/><ellipse cx="12" cy="12" rx="10" ry="4" transform="rotate(120 12 12)"/></g><circle cx="12" cy="12" r="2" fill="currentColor" stroke="none"/></g><text class="techlbl" x="669" y="226">React</text><rect x="716" y="203" width="85" height="38" rx="9" fill="#28332F" stroke="#40534D" stroke-width="1"/><g transform="translate(724 210) scale(1.0000)" fill="#EDEDED" stroke="#EDEDED"><title>Next.js</title><circle cx="12" cy="12" r="9.4" fill="#111518" stroke="#40534D"/><path d="M8.8 8v8M8.8 8l6.6 8.4M15.4 8v5.4" stroke="#EDEDED" stroke-width="1.7"/></g><text class="techlbl" x="755" y="226">Next.js</text><rect x="809" y="203" width="115" height="38" rx="9" fill="#28332F" stroke="#40534D" stroke-width="1"/><g transform="translate(817 210) scale(1.0000)" fill="#38BDF8" stroke="#38BDF8"><title>Tailwind CSS</title><path d="M7 12.4c.7-2.8 2.3-4.2 4.8-4.2 3.7 0 4.1 2.8 6 3.2 1.3.3 2.4-.2 3.2-1.6-.7 2.8-2.3 4.2-4.8 4.2-3.7 0-4.1-2.8-6-3.2-1.3-.3-2.4.2-3.2 1.6Z"/><path d="M1.6 16.8c.7-2.8 2.3-4.2 4.8-4.2 3.7 0 4.1 2.8 6 3.2 1.3.3 2.4-.2 3.2-1.6-.7 2.8-2.3 4.2-4.8 4.2-3.7 0-4.1-2.8-6-3.2-1.3-.3-2.4.2-3.2 1.6Z"/></g><text class="techlbl" x="848" y="226">Tailwind CSS</text><rect x="932" y="203" width="86" height="38" rx="9" fill="#28332F" stroke="#40534D" stroke-width="1"/><g transform="translate(940 210) scale(1.0000)" fill="#E34F26" stroke="#E34F26"><title>HTML5</title><path d="M3.4 2.6h17.2l-1.6 17.6L12 22 5 20.2Z" fill="currentColor" stroke="none"/><path d="M12 5.4H6.6l.3 3.4H12v3.2H7.2l.3 3.3L12 16.5v-3.5m0-7.6h5.4l-.3 3.4H12m0 7.6 3.9-1.1.4-4.1H12" fill="none" stroke="#F1EEE7" stroke-width="1.2"/></g><text class="techlbl" x="971" y="226">HTML5</text><rect x="1026" y="203" width="74" height="38" rx="9" fill="#28332F" stroke="#40534D" stroke-width="1"/><g transform="translate(1034 210) scale(1.0000)" fill="#1572B6" stroke="#1572B6"><title>CSS3</title><path d="M3.4 2.6h17.2l-1.6 17.6L12 22 5 20.2Z" fill="currentColor" stroke="none"/><path d="M17.4 5.4H6.6l.3 3.4h10.2l-.4 4-4.7 1.5-4.6-1.5-.3-2.4m-.1-1.1.7 7.6L12 18.3l4.9-1.4.6-6.9" fill="none" stroke="#F1EEE7" stroke-width="1.2"/></g><text class="techlbl" x="1065" y="226">CSS3</text></g>
    <g><rect x="22" y="308" width="568" height="182" rx="14" fill="url(#scard)" stroke="#40534D" stroke-width="1.1"/><rect x="22" y="324" width="3" height="150" rx="1.5" fill="#4FA78F"/><g class="ico" stroke="#78BBA9" transform="translate(42 326)"><rect x="2.4" y="3" width="7.6" height="7.6" rx="1.8"/><rect x="14" y="13" width="7.6" height="7.6" rx="1.8"/><path d="M10 6.8h3.4a2 2 0 0 1 2 2v3.4M6.8 10.6v3.4a2 2 0 0 0 2 2H12" stroke-width="1.5"/></g><text class="cattitle" x="74" y="343">BACKEND AND ARCHITECTURE</text><rect x="42" y="358" width="528" height="1" fill="#2D3B37" opacity=".7"/><rect x="42" y="378" width="112" height="38" rx="9" fill="#28332F" stroke="#40534D" stroke-width="1"/><g transform="translate(50 385) scale(1.0000)" fill="#6DB33F" stroke="#6DB33F"><title>Spring Boot</title><path d="M17.6 6.4A8.6 8.6 0 1 1 6.4 17.6c-.6.6-1.4 1.8-1.4 1.8s.2-1.4-.4-2.4A8.6 8.6 0 0 1 17.6 6.4Z"/><path d="M15.6 8.8c-3 3-4.2 3-6.4 5.2-1.4 1.4-1.4 2.8-1.4 2.8s1.6-.4 2.8-1.6c2.2-2.2 2.2-3.6 5.2-6.4" stroke-width="1.5"/></g><text class="techlbl" x="81" y="401">Spring Boot</text><rect x="162" y="378" width="88" height="38" rx="9" fill="#28332F" stroke="#40534D" stroke-width="1"/><g transform="translate(170 385) scale(1.0000)" fill="#05998B" stroke="#05998B"><title>FastAPI</title><circle cx="12" cy="12" r="9.4"/><path d="M13.4 4.6 7.4 13h4.2l-1 6.4 6-8.6h-4.2Z" fill="#0B1219" stroke="none"/></g><text class="techlbl" x="201" y="401">FastAPI</text><rect x="258" y="378" width="89" height="38" rx="9" fill="#28332F" stroke="#40534D" stroke-width="1"/><g transform="translate(266 385) scale(1.0000)" fill="#83CD29" stroke="#83CD29"><title>Node.js</title><path d="M12 2.4 20.4 7.2v9.6L12 21.6 3.6 16.8V7.2Z"/><path d="M9 15.4c.5.7 1.3 1.1 2.3 1.1 1.1 0 1.6-.5 1.6-1.2 0-.8-.6-1.1-1.9-1.5l-.6-.2c-1.9-.6-3-1.5-3-3.2 0-1.7 1.4-2.9 3.5-2.9 1.5 0 2.6.5 3.4 1.9l-1.7 1.1c-.4-.7-.8-1-1.7-1-.8 0-1.3.4-1.3.9 0 .7.4.9 1.7 1.3l.6.2c2.2.8 3.4 1.6 3.4 3.4 0 2-1.6 3.1-3.8 3.1-2.1 0-3.5-1-4.2-2.3Z" fill="#111518" stroke="none"/></g><text class="techlbl" x="297" y="401">Node.js</text><rect x="355" y="378" width="95" height="38" rx="9" fill="#28332F" stroke="#40534D" stroke-width="1"/><g transform="translate(363 385) scale(1.0000)" fill="#4FA78F" stroke="#4FA78F"><title>REST API</title><path d="M8.4 3.6 3.6 12l4.8 8.4M15.6 3.6l4.8 8.4-4.8 8.4" stroke-width="1.7"/><path d="M9.4 12h5.2M12.6 9.4 15.2 12l-2.6 2.6" stroke-width="1.5"/></g><text class="techlbl" x="394" y="401">REST API</text><rect x="42" y="428" width="119" height="38" rx="9" fill="#28332F" stroke="#40534D" stroke-width="1"/><g transform="translate(50 435) scale(1.0000)" fill="#4FA78F" stroke="#4FA78F"><title>Microservices</title><rect x="2.4" y="3" width="7" height="7" rx="1.6"/><rect x="14.6" y="3" width="7" height="7" rx="1.6"/><rect x="8.5" y="14" width="7" height="7" rx="1.6"/><path d="M9.4 10v2a2 2 0 0 0 2 2M14.6 10v2a2 2 0 0 1-2 2" stroke-width="1.4"/></g><text class="techlbl" x="81" y="451">Microservices</text><rect x="169" y="428" width="114" height="38" rx="9" fill="#28332F" stroke="#40534D" stroke-width="1"/><g transform="translate(177 435) scale(1.0000)" fill="#B4121B" stroke="#B4121B"><title>SQLAlchemy</title><ellipse cx="12" cy="6" rx="7.6" ry="2.8"/><path d="M4.4 6v12c0 1.5 3.4 2.8 7.6 2.8s7.6-1.3 7.6-2.8V6"/><path d="M4.4 12c0 1.5 3.4 2.8 7.6 2.8s7.6-1.3 7.6-2.8" stroke-width="1.5"/></g><text class="techlbl" x="208" y="451">SQLAlchemy</text></g><g class="cg3"><rect x="22" y="308" width="568" height="182" rx="14" fill="url(#scardOn)" stroke="#D4B477" stroke-width="1.4"/><rect x="22" y="324" width="3" height="150" rx="1.5" fill="#D4B477"/><g class="ico" stroke="#D4B477" transform="translate(42 326)"><rect x="2.4" y="3" width="7.6" height="7.6" rx="1.8"/><rect x="14" y="13" width="7.6" height="7.6" rx="1.8"/><path d="M10 6.8h3.4a2 2 0 0 1 2 2v3.4M6.8 10.6v3.4a2 2 0 0 0 2 2H12" stroke-width="1.5"/></g><text class="cattitle" x="74" y="343">BACKEND AND ARCHITECTURE</text><rect x="42" y="358" width="528" height="1" fill="#D4B477" opacity=".9"/><rect x="42" y="378" width="112" height="38" rx="9" fill="#28332F" stroke="#40534D" stroke-width="1"/><g transform="translate(50 385) scale(1.0000)" fill="#6DB33F" stroke="#6DB33F"><title>Spring Boot</title><path d="M17.6 6.4A8.6 8.6 0 1 1 6.4 17.6c-.6.6-1.4 1.8-1.4 1.8s.2-1.4-.4-2.4A8.6 8.6 0 0 1 17.6 6.4Z"/><path d="M15.6 8.8c-3 3-4.2 3-6.4 5.2-1.4 1.4-1.4 2.8-1.4 2.8s1.6-.4 2.8-1.6c2.2-2.2 2.2-3.6 5.2-6.4" stroke-width="1.5"/></g><text class="techlbl" x="81" y="401">Spring Boot</text><rect x="162" y="378" width="88" height="38" rx="9" fill="#28332F" stroke="#40534D" stroke-width="1"/><g transform="translate(170 385) scale(1.0000)" fill="#05998B" stroke="#05998B"><title>FastAPI</title><circle cx="12" cy="12" r="9.4"/><path d="M13.4 4.6 7.4 13h4.2l-1 6.4 6-8.6h-4.2Z" fill="#0B1219" stroke="none"/></g><text class="techlbl" x="201" y="401">FastAPI</text><rect x="258" y="378" width="89" height="38" rx="9" fill="#28332F" stroke="#40534D" stroke-width="1"/><g transform="translate(266 385) scale(1.0000)" fill="#83CD29" stroke="#83CD29"><title>Node.js</title><path d="M12 2.4 20.4 7.2v9.6L12 21.6 3.6 16.8V7.2Z"/><path d="M9 15.4c.5.7 1.3 1.1 2.3 1.1 1.1 0 1.6-.5 1.6-1.2 0-.8-.6-1.1-1.9-1.5l-.6-.2c-1.9-.6-3-1.5-3-3.2 0-1.7 1.4-2.9 3.5-2.9 1.5 0 2.6.5 3.4 1.9l-1.7 1.1c-.4-.7-.8-1-1.7-1-.8 0-1.3.4-1.3.9 0 .7.4.9 1.7 1.3l.6.2c2.2.8 3.4 1.6 3.4 3.4 0 2-1.6 3.1-3.8 3.1-2.1 0-3.5-1-4.2-2.3Z" fill="#111518" stroke="none"/></g><text class="techlbl" x="297" y="401">Node.js</text><rect x="355" y="378" width="95" height="38" rx="9" fill="#28332F" stroke="#40534D" stroke-width="1"/><g transform="translate(363 385) scale(1.0000)" fill="#4FA78F" stroke="#4FA78F"><title>REST API</title><path d="M8.4 3.6 3.6 12l4.8 8.4M15.6 3.6l4.8 8.4-4.8 8.4" stroke-width="1.7"/><path d="M9.4 12h5.2M12.6 9.4 15.2 12l-2.6 2.6" stroke-width="1.5"/></g><text class="techlbl" x="394" y="401">REST API</text><rect x="42" y="428" width="119" height="38" rx="9" fill="#28332F" stroke="#40534D" stroke-width="1"/><g transform="translate(50 435) scale(1.0000)" fill="#4FA78F" stroke="#4FA78F"><title>Microservices</title><rect x="2.4" y="3" width="7" height="7" rx="1.6"/><rect x="14.6" y="3" width="7" height="7" rx="1.6"/><rect x="8.5" y="14" width="7" height="7" rx="1.6"/><path d="M9.4 10v2a2 2 0 0 0 2 2M14.6 10v2a2 2 0 0 1-2 2" stroke-width="1.4"/></g><text class="techlbl" x="81" y="451">Microservices</text><rect x="169" y="428" width="114" height="38" rx="9" fill="#28332F" stroke="#40534D" stroke-width="1"/><g transform="translate(177 435) scale(1.0000)" fill="#B4121B" stroke="#B4121B"><title>SQLAlchemy</title><ellipse cx="12" cy="6" rx="7.6" ry="2.8"/><path d="M4.4 6v12c0 1.5 3.4 2.8 7.6 2.8s7.6-1.3 7.6-2.8V6"/><path d="M4.4 12c0 1.5 3.4 2.8 7.6 2.8s7.6-1.3 7.6-2.8" stroke-width="1.5"/></g><text class="techlbl" x="208" y="451">SQLAlchemy</text></g>
    <g><rect x="610" y="308" width="568" height="182" rx="14" fill="url(#scard)" stroke="#40534D" stroke-width="1.1"/><rect x="610" y="324" width="3" height="150" rx="1.5" fill="#4FA78F"/><g class="ico" stroke="#78BBA9" transform="translate(630 326)"><rect x="6" y="6" width="12" height="12" rx="2.2"/><rect x="9.6" y="9.6" width="4.8" height="4.8" rx="1"/><path d="M9.6 6V3M14.4 6V3M9.6 21v-3M14.4 21v-3M6 9.6H3M6 14.4H3M21 9.6h-3M21 14.4h-3" stroke-width="1.5"/></g><text class="cattitle" x="662" y="343">AI/ML AND LOCAL AI</text><rect x="630" y="358" width="528" height="1" fill="#2D3B37" opacity=".7"/><rect x="630" y="378" width="91" height="38" rx="9" fill="#28332F" stroke="#40534D" stroke-width="1"/><g transform="translate(638 385) scale(1.0000)" fill="#EE4C2C" stroke="#EE4C2C"><title>PyTorch</title><path d="M15.9 6.3a7.1 7.1 0 1 1-8.8 1.1l1.5 1.5a5 5 0 1 0 6.2-.8Z"/><path d="M12 2.6v7.3" stroke-width="1.7"/><circle cx="15.4" cy="5.1" r="1" fill="currentColor" stroke="none"/></g><text class="techlbl" x="669" y="401">PyTorch</text><rect x="729" y="378" width="78" height="38" rx="9" fill="#28332F" stroke="#40534D" stroke-width="1"/><g transform="translate(737 385) scale(1.0000)" fill="#E8823C" stroke="#E8823C"><title>YOLO</title><path d="M4 4h4M4 4v4M20 4h-4M20 4v4M4 20h4M4 20v-4M20 20h-4M20 20v-4" stroke-width="1.8"/><circle cx="12" cy="12" r="3.2" stroke-width="1.6"/></g><text class="techlbl" x="768" y="401">YOLO</text><rect x="815" y="378" width="85" height="38" rx="9" fill="#28332F" stroke="#40534D" stroke-width="1"/><g transform="translate(823 385) scale(1.0000)" fill="#F1EEE7" stroke="#F1EEE7"><title>Ollama</title><rect x="5.4" y="6.4" width="13.2" height="12.2" rx="6"/><circle cx="9.4" cy="12.2" r="1.15" fill="#111518" stroke="none"/><circle cx="14.6" cy="12.2" r="1.15" fill="#111518" stroke="none"/><path d="M9.4 3.4v2.6M14.6 3.4v2.6" stroke-width="1.5"/></g><text class="techlbl" x="854" y="401">Ollama</text><rect x="908" y="378" width="114" height="38" rx="9" fill="#28332F" stroke="#40534D" stroke-width="1"/><g transform="translate(916 385) scale(1.0000)" fill="#FF7557" stroke="#FF7557"><title>Label Studio</title><path d="M3.6 3.6h8.4l8.4 8.4-8.4 8.4-8.4-8.4Z"/><circle cx="8.2" cy="8.2" r="1.6" fill="currentColor" stroke="none"/></g><text class="techlbl" x="947" y="401">Label Studio</text><rect x="1030" y="378" width="88" height="38" rx="9" fill="#28332F" stroke="#40534D" stroke-width="1"/><g transform="translate(1038 385) scale(1.0000)" fill="#4DABCF" stroke="#4DABCF"><title>NumPy</title><path d="M4 7.4 12 3l8 4.4v9.2L12 21l-8-4.4Z"/><path d="M4 7.4 12 11.8l8-4.4M12 11.8V21" stroke="#1D2523" stroke-width="1.1"/></g><text class="techlbl" x="1069" y="401">NumPy</text><rect x="630" y="428" width="80" height="38" rx="9" fill="#28332F" stroke="#40534D" stroke-width="1"/><g transform="translate(638 435) scale(1.0000)" fill="#76B900" stroke="#76B900"><title>CUDA</title><path d="M4 12a8 8 0 0 1 13.9-5.4M20 12a8 8 0 0 1-13.9 5.4" stroke-width="1.8"/><path d="m15 5 2 2-2 2M9 19l-2-2 2-2" stroke-width="1.8"/></g><text class="techlbl" x="669" y="451">CUDA</text></g><g class="cg4"><rect x="610" y="308" width="568" height="182" rx="14" fill="url(#scardOn)" stroke="#D4B477" stroke-width="1.4"/><rect x="610" y="324" width="3" height="150" rx="1.5" fill="#D4B477"/><g class="ico" stroke="#D4B477" transform="translate(630 326)"><rect x="6" y="6" width="12" height="12" rx="2.2"/><rect x="9.6" y="9.6" width="4.8" height="4.8" rx="1"/><path d="M9.6 6V3M14.4 6V3M9.6 21v-3M14.4 21v-3M6 9.6H3M6 14.4H3M21 9.6h-3M21 14.4h-3" stroke-width="1.5"/></g><text class="cattitle" x="662" y="343">AI/ML AND LOCAL AI</text><rect x="630" y="358" width="528" height="1" fill="#D4B477" opacity=".9"/><rect x="630" y="378" width="91" height="38" rx="9" fill="#28332F" stroke="#40534D" stroke-width="1"/><g transform="translate(638 385) scale(1.0000)" fill="#EE4C2C" stroke="#EE4C2C"><title>PyTorch</title><path d="M15.9 6.3a7.1 7.1 0 1 1-8.8 1.1l1.5 1.5a5 5 0 1 0 6.2-.8Z"/><path d="M12 2.6v7.3" stroke-width="1.7"/><circle cx="15.4" cy="5.1" r="1" fill="currentColor" stroke="none"/></g><text class="techlbl" x="669" y="401">PyTorch</text><rect x="729" y="378" width="78" height="38" rx="9" fill="#28332F" stroke="#40534D" stroke-width="1"/><g transform="translate(737 385) scale(1.0000)" fill="#E8823C" stroke="#E8823C"><title>YOLO</title><path d="M4 4h4M4 4v4M20 4h-4M20 4v4M4 20h4M4 20v-4M20 20h-4M20 20v-4" stroke-width="1.8"/><circle cx="12" cy="12" r="3.2" stroke-width="1.6"/></g><text class="techlbl" x="768" y="401">YOLO</text><rect x="815" y="378" width="85" height="38" rx="9" fill="#28332F" stroke="#40534D" stroke-width="1"/><g transform="translate(823 385) scale(1.0000)" fill="#F1EEE7" stroke="#F1EEE7"><title>Ollama</title><rect x="5.4" y="6.4" width="13.2" height="12.2" rx="6"/><circle cx="9.4" cy="12.2" r="1.15" fill="#111518" stroke="none"/><circle cx="14.6" cy="12.2" r="1.15" fill="#111518" stroke="none"/><path d="M9.4 3.4v2.6M14.6 3.4v2.6" stroke-width="1.5"/></g><text class="techlbl" x="854" y="401">Ollama</text><rect x="908" y="378" width="114" height="38" rx="9" fill="#28332F" stroke="#40534D" stroke-width="1"/><g transform="translate(916 385) scale(1.0000)" fill="#FF7557" stroke="#FF7557"><title>Label Studio</title><path d="M3.6 3.6h8.4l8.4 8.4-8.4 8.4-8.4-8.4Z"/><circle cx="8.2" cy="8.2" r="1.6" fill="currentColor" stroke="none"/></g><text class="techlbl" x="947" y="401">Label Studio</text><rect x="1030" y="378" width="88" height="38" rx="9" fill="#28332F" stroke="#40534D" stroke-width="1"/><g transform="translate(1038 385) scale(1.0000)" fill="#4DABCF" stroke="#4DABCF"><title>NumPy</title><path d="M4 7.4 12 3l8 4.4v9.2L12 21l-8-4.4Z"/><path d="M4 7.4 12 11.8l8-4.4M12 11.8V21" stroke="#1D2523" stroke-width="1.1"/></g><text class="techlbl" x="1069" y="401">NumPy</text><rect x="630" y="428" width="80" height="38" rx="9" fill="#28332F" stroke="#40534D" stroke-width="1"/><g transform="translate(638 435) scale(1.0000)" fill="#76B900" stroke="#76B900"><title>CUDA</title><path d="M4 12a8 8 0 0 1 13.9-5.4M20 12a8 8 0 0 1-13.9 5.4" stroke-width="1.8"/><path d="m15 5 2 2-2 2M9 19l-2-2 2-2" stroke-width="1.8"/></g><text class="techlbl" x="669" y="451">CUDA</text></g>
    <g><rect x="22" y="508" width="568" height="182" rx="14" fill="url(#scard)" stroke="#40534D" stroke-width="1.1"/><rect x="22" y="524" width="3" height="150" rx="1.5" fill="#4FA78F"/><g class="ico" stroke="#78BBA9" transform="translate(42 526)"><ellipse cx="12" cy="6.2" rx="7.6" ry="2.8"/><path d="M4.4 6.2V12c0 1.5 3.4 2.8 7.6 2.8s7.6-1.3 7.6-2.8V6.2"/><path d="M4.4 12v5.8c0 1.5 3.4 2.8 7.6 2.8s7.6-1.3 7.6-2.8V12" stroke-width="1.4"/></g><text class="cattitle" x="74" y="543">DATABASES</text><rect x="42" y="558" width="528" height="1" fill="#2D3B37" opacity=".7"/><rect x="42" y="603" width="86" height="38" rx="9" fill="#28332F" stroke="#40534D" stroke-width="1"/><g transform="translate(50 610) scale(1.0000)" fill="#CC2927" stroke="#CC2927"><title>MSSQL</title><ellipse cx="12" cy="6" rx="7.4" ry="2.6"/><path d="M4.6 6v12c0 1.4 3.3 2.6 7.4 2.6s7.4-1.2 7.4-2.6V6"/><path d="M4.6 11.4c0 1.4 3.3 2.6 7.4 2.6s7.4-1.2 7.4-2.6" stroke-width="1.4"/></g><text class="techlbl" x="81" y="626">MSSQL</text><rect x="136" y="603" width="109" height="38" rx="9" fill="#28332F" stroke="#40534D" stroke-width="1"/><g transform="translate(144 610) scale(1.0000)" fill="#336791" stroke="#336791"><title>PostgreSQL</title><path d="M12 2.6c-4.8 0-7.8 3-7.8 7.6 0 3.4 1.3 6 2.4 7.6.6.9 1.6 1.4 1.9.7.2-.5-.1-.9-.3-1.3-.4-.8-.7-1.7-.4-2.6" fill="none"/><path d="M12 2.6c4.8 0 7.8 3.4 7.8 8 0 4.2-2.2 7.4-3 8.6-.3.5-1 .8-1.5.4-.4-.3-.3-.8-.2-1.2.3-1 .1-1.8-.4-2.4" fill="none"/><path d="M9.6 12.4c-1.4-.3-2.6.2-2.6 1.2 0 .9 1 1.5 2.3 1.3M14.4 12.4c1.4-.3 2.6.2 2.6 1.2 0 .9-1 1.5-2.3 1.3" stroke-width="1.3"/><circle cx="10.4" cy="9.4" r="0.8" fill="currentColor" stroke="none"/><circle cx="13.6" cy="9.4" r="0.8" fill="currentColor" stroke="none"/></g><text class="techlbl" x="175" y="626">PostgreSQL</text><rect x="253" y="603" width="82" height="38" rx="9" fill="#28332F" stroke="#40534D" stroke-width="1"/><g transform="translate(261 610) scale(1.0000)" fill="#0F80CC" stroke="#0F80CC"><title>SQLite</title><rect x="4" y="6.4" width="16" height="12.4" rx="3"/><path d="M8 6.4V4.8a2 2 0 0 1 2-2h1.4M16 6.4V4.8a2 2 0 0 0-2-2h-1.4" stroke-width="1.3"/><path d="M8.4 11h7.2M8.4 14.4h7.2" stroke-width="1.3"/></g><text class="techlbl" x="292" y="626">SQLite</text><rect x="343" y="603" width="96" height="38" rx="9" fill="#28332F" stroke="#40534D" stroke-width="1"/><g transform="translate(351 610) scale(1.0000)" fill="#9B7FD1" stroke="#9B7FD1"><title>pgvector</title><circle cx="6" cy="6.4" r="1.6"/><circle cx="18" cy="6.4" r="1.6"/><circle cx="12" cy="18" r="1.6"/><circle cx="12" cy="11" r="1.4" fill="currentColor" stroke="none"/><path d="M7.3 7.4 11 10.3M16.7 7.4 13 10.3M12 12.4V16.4" stroke-width="1.4"/></g><text class="techlbl" x="382" y="626">pgvector</text></g><g class="cg5"><rect x="22" y="508" width="568" height="182" rx="14" fill="url(#scardOn)" stroke="#D4B477" stroke-width="1.4"/><rect x="22" y="524" width="3" height="150" rx="1.5" fill="#D4B477"/><g class="ico" stroke="#D4B477" transform="translate(42 526)"><ellipse cx="12" cy="6.2" rx="7.6" ry="2.8"/><path d="M4.4 6.2V12c0 1.5 3.4 2.8 7.6 2.8s7.6-1.3 7.6-2.8V6.2"/><path d="M4.4 12v5.8c0 1.5 3.4 2.8 7.6 2.8s7.6-1.3 7.6-2.8V12" stroke-width="1.4"/></g><text class="cattitle" x="74" y="543">DATABASES</text><rect x="42" y="558" width="528" height="1" fill="#D4B477" opacity=".9"/><rect x="42" y="603" width="86" height="38" rx="9" fill="#28332F" stroke="#40534D" stroke-width="1"/><g transform="translate(50 610) scale(1.0000)" fill="#CC2927" stroke="#CC2927"><title>MSSQL</title><ellipse cx="12" cy="6" rx="7.4" ry="2.6"/><path d="M4.6 6v12c0 1.4 3.3 2.6 7.4 2.6s7.4-1.2 7.4-2.6V6"/><path d="M4.6 11.4c0 1.4 3.3 2.6 7.4 2.6s7.4-1.2 7.4-2.6" stroke-width="1.4"/></g><text class="techlbl" x="81" y="626">MSSQL</text><rect x="136" y="603" width="109" height="38" rx="9" fill="#28332F" stroke="#40534D" stroke-width="1"/><g transform="translate(144 610) scale(1.0000)" fill="#336791" stroke="#336791"><title>PostgreSQL</title><path d="M12 2.6c-4.8 0-7.8 3-7.8 7.6 0 3.4 1.3 6 2.4 7.6.6.9 1.6 1.4 1.9.7.2-.5-.1-.9-.3-1.3-.4-.8-.7-1.7-.4-2.6" fill="none"/><path d="M12 2.6c4.8 0 7.8 3.4 7.8 8 0 4.2-2.2 7.4-3 8.6-.3.5-1 .8-1.5.4-.4-.3-.3-.8-.2-1.2.3-1 .1-1.8-.4-2.4" fill="none"/><path d="M9.6 12.4c-1.4-.3-2.6.2-2.6 1.2 0 .9 1 1.5 2.3 1.3M14.4 12.4c1.4-.3 2.6.2 2.6 1.2 0 .9-1 1.5-2.3 1.3" stroke-width="1.3"/><circle cx="10.4" cy="9.4" r="0.8" fill="currentColor" stroke="none"/><circle cx="13.6" cy="9.4" r="0.8" fill="currentColor" stroke="none"/></g><text class="techlbl" x="175" y="626">PostgreSQL</text><rect x="253" y="603" width="82" height="38" rx="9" fill="#28332F" stroke="#40534D" stroke-width="1"/><g transform="translate(261 610) scale(1.0000)" fill="#0F80CC" stroke="#0F80CC"><title>SQLite</title><rect x="4" y="6.4" width="16" height="12.4" rx="3"/><path d="M8 6.4V4.8a2 2 0 0 1 2-2h1.4M16 6.4V4.8a2 2 0 0 0-2-2h-1.4" stroke-width="1.3"/><path d="M8.4 11h7.2M8.4 14.4h7.2" stroke-width="1.3"/></g><text class="techlbl" x="292" y="626">SQLite</text><rect x="343" y="603" width="96" height="38" rx="9" fill="#28332F" stroke="#40534D" stroke-width="1"/><g transform="translate(351 610) scale(1.0000)" fill="#9B7FD1" stroke="#9B7FD1"><title>pgvector</title><circle cx="6" cy="6.4" r="1.6"/><circle cx="18" cy="6.4" r="1.6"/><circle cx="12" cy="18" r="1.6"/><circle cx="12" cy="11" r="1.4" fill="currentColor" stroke="none"/><path d="M7.3 7.4 11 10.3M16.7 7.4 13 10.3M12 12.4V16.4" stroke-width="1.4"/></g><text class="techlbl" x="382" y="626">pgvector</text></g>
    <g><rect x="610" y="508" width="568" height="182" rx="14" fill="url(#scard)" stroke="#40534D" stroke-width="1.1"/><rect x="610" y="524" width="3" height="150" rx="1.5" fill="#4FA78F"/><g class="ico" stroke="#78BBA9" transform="translate(630 526)"><rect x="3" y="4" width="18" height="5.4" rx="1.6"/><rect x="3" y="14.6" width="18" height="5.4" rx="1.6"/><circle cx="6.4" cy="6.7" r="0.85" fill="currentColor" stroke="none"/><circle cx="6.4" cy="17.3" r="0.85" fill="currentColor" stroke="none"/><path d="M9.6 6.7h8M9.6 17.3h8" stroke-width="1.3"/></g><text class="cattitle" x="662" y="543">DEVOPS AND SYSTEMS</text><rect x="630" y="558" width="528" height="1" fill="#2D3B37" opacity=".7"/><rect x="630" y="603" width="86" height="38" rx="9" fill="#28332F" stroke="#40534D" stroke-width="1"/><g transform="translate(638 610) scale(1.0000)" fill="#2496ED" stroke="#2496ED"><title>Docker</title><rect x="3" y="11" width="3.2" height="3"/><rect x="6.8" y="11" width="3.2" height="3"/><rect x="10.6" y="11" width="3.2" height="3"/><rect x="6.8" y="7.4" width="3.2" height="3"/><rect x="10.6" y="7.4" width="3.2" height="3"/><path d="M2.4 14c0 3.8 2.6 6 7.4 6 5.4 0 8.6-2.8 9.6-6.6.9.1 2-.1 2.6-.9-.9-.7-2-.6-2.6-.4C18.8 11 18 11 18 11H2.4Z" stroke-width="1.1"/></g><text class="techlbl" x="669" y="626">Docker</text><rect x="724" y="603" width="65" height="38" rx="9" fill="#28332F" stroke="#40534D" stroke-width="1"/><g transform="translate(732 610) scale(1.0000)" fill="#F05033" stroke="#F05033"><title>Git</title><circle cx="6" cy="6" r="2.4"/><circle cx="6" cy="18" r="2.4"/><circle cx="17.6" cy="12" r="2.4"/><path d="M6 8.4V15.6M8.2 6.6l7 3.6a2.4 2.4 0 0 1 1.4 2.2v.2" stroke-width="1.5" fill="none"/></g><text class="techlbl" x="763" y="626">Git</text><rect x="797" y="603" width="86" height="38" rx="9" fill="#28332F" stroke="#40534D" stroke-width="1"/><g transform="translate(805 610) scale(1.0000)" fill="#E8E3D6" stroke="#E8E3D6"><title>GitHub</title><path d="M12 2.6a9.6 9.6 0 0 0-3 18.7c.5.1.7-.2.7-.5v-1.9c-2.7.6-3.3-1.2-3.3-1.2-.4-1.1-1-1.4-1-1.4-.9-.6.1-.6.1-.6 1 .1 1.5 1 1.5 1 .9 1.5 2.3 1.1 2.9.8.1-.6.3-1.1.6-1.3-2.1-.2-4.4-1.1-4.4-4.7 0-1 .4-1.9 1-2.6-.1-.2-.4-1.2.1-2.5 0 0 .8-.3 2.7 1a9.1 9.1 0 0 1 4.9 0c1.9-1.3 2.7-1 2.7-1 .5 1.3.2 2.3.1 2.5.6.7 1 1.6 1 2.6 0 3.6-2.3 4.5-4.4 4.7.3.3.6.9.6 1.8v2.6c0 .3.2.6.7.5A9.6 9.6 0 0 0 12 2.6Z" fill="currentColor" stroke="none"/></g><text class="techlbl" x="836" y="626">GitHub</text><rect x="891" y="603" width="79" height="38" rx="9" fill="#28332F" stroke="#40534D" stroke-width="1"/><g transform="translate(899 610) scale(1.0000)" fill="#C4CCC7" stroke="#C4CCC7"><title>Linux</title><ellipse cx="12" cy="9.4" rx="4" ry="5" fill="currentColor" stroke="none"/><path d="M8.6 13.6 6.4 19.4c-.3.9.4 1.6 1.2 1.2l1.6-.8 1.4 1.4c.8.8 1.4.8 2.2 0l1.4-1.4 1.6.8c.8.4 1.5-.3 1.2-1.2l-2.2-5.8" fill="none" stroke="#111518" stroke-width="1.3"/><circle cx="10.2" cy="8.4" r="0.8" fill="#111518" stroke="none"/><circle cx="13.8" cy="8.4" r="0.8" fill="#111518" stroke="none"/></g><text class="techlbl" x="930" y="626">Linux</text><rect x="978" y="603" width="89" height="38" rx="9" fill="#28332F" stroke="#40534D" stroke-width="1"/><g transform="translate(986 610) scale(1.0000)" fill="#E95420" stroke="#E95420"><title>Ubuntu</title><circle cx="12" cy="12" r="9.4"/><circle cx="12" cy="5.6" r="1.9" fill="#111518" stroke="none"/><circle cx="6.6" cy="15.2" r="1.9" fill="#111518" stroke="none"/><circle cx="17.4" cy="15.2" r="1.9" fill="#111518" stroke="none"/><circle cx="12" cy="12" r="3.2" fill="#111518" stroke="none"/></g><text class="techlbl" x="1017" y="626">Ubuntu</text></g><g class="cg6"><rect x="610" y="508" width="568" height="182" rx="14" fill="url(#scardOn)" stroke="#D4B477" stroke-width="1.4"/><rect x="610" y="524" width="3" height="150" rx="1.5" fill="#D4B477"/><g class="ico" stroke="#D4B477" transform="translate(630 526)"><rect x="3" y="4" width="18" height="5.4" rx="1.6"/><rect x="3" y="14.6" width="18" height="5.4" rx="1.6"/><circle cx="6.4" cy="6.7" r="0.85" fill="currentColor" stroke="none"/><circle cx="6.4" cy="17.3" r="0.85" fill="currentColor" stroke="none"/><path d="M9.6 6.7h8M9.6 17.3h8" stroke-width="1.3"/></g><text class="cattitle" x="662" y="543">DEVOPS AND SYSTEMS</text><rect x="630" y="558" width="528" height="1" fill="#D4B477" opacity=".9"/><rect x="630" y="603" width="86" height="38" rx="9" fill="#28332F" stroke="#40534D" stroke-width="1"/><g transform="translate(638 610) scale(1.0000)" fill="#2496ED" stroke="#2496ED"><title>Docker</title><rect x="3" y="11" width="3.2" height="3"/><rect x="6.8" y="11" width="3.2" height="3"/><rect x="10.6" y="11" width="3.2" height="3"/><rect x="6.8" y="7.4" width="3.2" height="3"/><rect x="10.6" y="7.4" width="3.2" height="3"/><path d="M2.4 14c0 3.8 2.6 6 7.4 6 5.4 0 8.6-2.8 9.6-6.6.9.1 2-.1 2.6-.9-.9-.7-2-.6-2.6-.4C18.8 11 18 11 18 11H2.4Z" stroke-width="1.1"/></g><text class="techlbl" x="669" y="626">Docker</text><rect x="724" y="603" width="65" height="38" rx="9" fill="#28332F" stroke="#40534D" stroke-width="1"/><g transform="translate(732 610) scale(1.0000)" fill="#F05033" stroke="#F05033"><title>Git</title><circle cx="6" cy="6" r="2.4"/><circle cx="6" cy="18" r="2.4"/><circle cx="17.6" cy="12" r="2.4"/><path d="M6 8.4V15.6M8.2 6.6l7 3.6a2.4 2.4 0 0 1 1.4 2.2v.2" stroke-width="1.5" fill="none"/></g><text class="techlbl" x="763" y="626">Git</text><rect x="797" y="603" width="86" height="38" rx="9" fill="#28332F" stroke="#40534D" stroke-width="1"/><g transform="translate(805 610) scale(1.0000)" fill="#E8E3D6" stroke="#E8E3D6"><title>GitHub</title><path d="M12 2.6a9.6 9.6 0 0 0-3 18.7c.5.1.7-.2.7-.5v-1.9c-2.7.6-3.3-1.2-3.3-1.2-.4-1.1-1-1.4-1-1.4-.9-.6.1-.6.1-.6 1 .1 1.5 1 1.5 1 .9 1.5 2.3 1.1 2.9.8.1-.6.3-1.1.6-1.3-2.1-.2-4.4-1.1-4.4-4.7 0-1 .4-1.9 1-2.6-.1-.2-.4-1.2.1-2.5 0 0 .8-.3 2.7 1a9.1 9.1 0 0 1 4.9 0c1.9-1.3 2.7-1 2.7-1 .5 1.3.2 2.3.1 2.5.6.7 1 1.6 1 2.6 0 3.6-2.3 4.5-4.4 4.7.3.3.6.9.6 1.8v2.6c0 .3.2.6.7.5A9.6 9.6 0 0 0 12 2.6Z" fill="currentColor" stroke="none"/></g><text class="techlbl" x="836" y="626">GitHub</text><rect x="891" y="603" width="79" height="38" rx="9" fill="#28332F" stroke="#40534D" stroke-width="1"/><g transform="translate(899 610) scale(1.0000)" fill="#C4CCC7" stroke="#C4CCC7"><title>Linux</title><ellipse cx="12" cy="9.4" rx="4" ry="5" fill="currentColor" stroke="none"/><path d="M8.6 13.6 6.4 19.4c-.3.9.4 1.6 1.2 1.2l1.6-.8 1.4 1.4c.8.8 1.4.8 2.2 0l1.4-1.4 1.6.8c.8.4 1.5-.3 1.2-1.2l-2.2-5.8" fill="none" stroke="#111518" stroke-width="1.3"/><circle cx="10.2" cy="8.4" r="0.8" fill="#111518" stroke="none"/><circle cx="13.8" cy="8.4" r="0.8" fill="#111518" stroke="none"/></g><text class="techlbl" x="930" y="626">Linux</text><rect x="978" y="603" width="89" height="38" rx="9" fill="#28332F" stroke="#40534D" stroke-width="1"/><g transform="translate(986 610) scale(1.0000)" fill="#E95420" stroke="#E95420"><title>Ubuntu</title><circle cx="12" cy="12" r="9.4"/><circle cx="12" cy="5.6" r="1.9" fill="#111518" stroke="none"/><circle cx="6.6" cy="15.2" r="1.9" fill="#111518" stroke="none"/><circle cx="17.4" cy="15.2" r="1.9" fill="#111518" stroke="none"/><circle cx="12" cy="12" r="3.2" fill="#111518" stroke="none"/></g><text class="techlbl" x="1017" y="626">Ubuntu</text></g>
  </g>
</svg>
